<svg width="393" height="374" viewBox="0 0 393 374" fill="none" xmlns="http://www.w3.org/2000/svg">
<g opacity="0.2">
<path d="M275.193 216.016C275.193 237.312 257.617 254.575 235.935 254.575C214.254 254.575 196.677 237.312 196.677 216.016C196.677 194.72 214.254 177.456 235.935 177.456C257.617 177.456 275.193 194.72 275.193 216.016Z" fill="#AACE45"/>
<path d="M39.5484 216.362C39.5484 237.658 21.972 254.922 0.290221 254.922C-21.3916 254.922 -39 237.658 -39 216.362C-39 195.066 -21.4236 177.803 0.258147 177.803C21.9399 177.803 39.5163 195.066 39.5163 216.362" fill="#AACE45"/>
<path d="M157.355 216.362C157.355 237.658 139.779 254.922 118.097 254.922C96.4149 254.922 78.8386 237.658 78.8386 216.362C78.8386 195.066 96.4149 177.803 118.097 177.803C139.779 177.803 157.355 195.066 157.355 216.362Z" fill="#AACE45"/>
<path d="M275.193 331.726C275.193 353.022 257.617 370.286 235.935 370.286C214.254 370.286 196.677 353.022 196.677 331.726C196.677 310.43 214.254 293.167 235.935 293.167C257.617 293.167 275.193 310.43 275.193 331.726Z" fill="#AACE45"/>
<path d="M275.193 100.274C275.193 121.57 257.617 138.834 235.935 138.834C214.254 138.834 196.677 121.57 196.677 100.274C196.677 78.978 214.221 61.7144 235.903 61.7144C257.585 61.7144 275.161 78.978 275.161 100.274" fill="#AACE45"/>
<path d="M393 216.362C393 237.658 375.424 254.922 353.742 254.922C332.06 254.922 314.484 237.658 314.484 216.362C314.484 195.066 332.06 177.803 353.742 177.803C375.424 177.803 393 195.066 393 216.362Z" fill="#BEC3C8"/>
</g>
</svg>
