<svg width="24" height="24" viewBox="0 0 24 24" fill="none" xmlns="http://www.w3.org/2000/svg">
<g clip-path="url(#clip0_914_385)">
<g clip-path="url(#clip1_914_385)">
<path d="M23.25 12C23.25 5.78679 18.2132 0.75 12 0.75C5.78679 0.75 0.75 5.78679 0.75 12C0.75 17.6151 4.86394 22.2694 10.2422 23.1133V15.252H7.38574V12H10.2422V9.52148C10.2422 6.70195 11.9218 5.14453 14.4915 5.14453C15.7219 5.14453 17.0098 5.36426 17.0098 5.36426V8.13281H15.5912C14.1938 8.13281 13.7578 9.00007 13.7578 9.89062V12H16.8779L16.3792 15.252H13.7578V23.1133C19.1361 22.2694 23.25 17.6151 23.25 12Z" fill="#1877F2"/>
</g>
</g>
<defs>
<clipPath id="clip0_914_385">
<rect width="24" height="24" fill="white"/>
</clipPath>
<clipPath id="clip1_914_385">
<rect width="22.5" height="22.3633" fill="white" transform="translate(0.75 0.75)"/>
</clipPath>
</defs>
</svg>
