<svg width="168" height="29" viewBox="0 0 168 29" fill="none" xmlns="http://www.w3.org/2000/svg">
<g clip-path="url(#clip0_1003_348)">
<path d="M29.2605 14.5005C29.2605 16.5017 27.6237 18.124 25.6045 18.124C23.5853 18.124 21.9484 16.5017 21.9484 14.5005C21.9484 12.4992 23.5853 10.877 25.6045 10.877C27.6237 10.877 29.2605 12.4992 29.2605 14.5005Z" fill="#AACE45"/>
<path d="M7.31517 14.5327C7.31517 16.5339 5.6783 18.1562 3.6591 18.1562C1.6399 18.1562 4.57764e-05 16.5339 4.57764e-05 14.5327C4.57764e-05 12.5315 1.63691 10.9092 3.65612 10.9092C5.67532 10.9092 7.31219 12.5315 7.31219 14.5327" fill="#AACE45"/>
<path d="M18.2864 14.5327C18.2864 16.5339 16.6495 18.1562 14.6303 18.1562C12.6111 18.1562 10.9742 16.5339 10.9742 14.5327C10.9742 12.5315 12.6111 10.9092 14.6303 10.9092C16.6495 10.9092 18.2864 12.5315 18.2864 14.5327Z" fill="#AACE45"/>
<path d="M29.2605 25.3745C29.2605 27.3757 27.6237 28.998 25.6045 28.998C23.5853 28.998 21.9484 27.3757 21.9484 25.3745C21.9484 23.3733 23.5853 21.751 25.6045 21.751C27.6237 21.751 29.2605 23.3733 29.2605 25.3745Z" fill="#AACE45"/>
<path d="M29.2605 3.6245C29.2605 5.62572 27.6237 7.24802 25.6045 7.24802C23.5853 7.24802 21.9484 5.62572 21.9484 3.6245C21.9484 1.62327 23.5823 0.000976562 25.6015 0.000976562C27.6207 0.000976562 29.2576 1.62327 29.2576 3.6245" fill="#AACE45"/>
<path d="M40.2317 14.5327C40.2317 16.5339 38.5949 18.1562 36.5757 18.1562C34.5565 18.1562 32.9196 16.5339 32.9196 14.5327C32.9196 12.5315 34.5565 10.9092 36.5757 10.9092C38.5949 10.9092 40.2317 12.5315 40.2317 14.5327Z" fill="#BEC3C8"/>
<path d="M57.0992 7.7596H51.2089V3.63281H68.0704V7.7596H62.0815V25.3739H57.0992V7.7596Z" fill="#BEC3C8"/>
<path d="M87.4052 24.7619C86.4942 25.2148 84.4421 25.6974 81.7747 25.6974C74.1908 25.6974 70.2838 21.0199 70.2838 14.8268C70.2838 7.40807 75.6216 3.27832 82.2616 3.27832C84.8334 3.27832 86.7869 3.79343 87.6651 4.24637L86.6555 8.15113C85.6459 7.73075 84.248 7.3459 82.4886 7.3459C78.5488 7.3459 75.4901 9.70237 75.4901 14.5397C75.4901 18.8944 78.0948 21.6357 82.5215 21.6357C84.018 21.6357 85.6787 21.313 86.6555 20.9252L87.4052 24.7648V24.7619Z" fill="#AACE45"/>
<path d="M91.9633 3.92364C93.5584 3.66609 95.933 3.4707 98.5705 3.4707C101.826 3.4707 104.105 3.95621 105.668 5.18181C106.97 6.21499 107.687 7.73071 107.687 9.72897C107.687 12.5029 105.7 14.4064 103.813 15.0843V15.182C105.342 15.7948 106.187 17.2454 106.743 19.2466C107.427 21.6978 108.111 24.5369 108.532 25.3746H103.454C103.096 24.7618 102.576 22.9886 101.925 20.3094C101.339 17.6007 100.396 16.8576 98.3764 16.825H96.8799V25.3746H91.9663V3.92364H91.9633ZM96.8769 13.2785H98.8304C101.304 13.2785 102.77 12.0529 102.77 10.1493C102.77 8.14812 101.402 7.14751 99.1261 7.11791C97.9223 7.11791 97.2383 7.2156 96.8799 7.28073V13.2814L96.8769 13.2785Z" fill="#AACE45"/>
<path d="M131.965 14.2792C131.965 21.4078 127.604 25.73 121.191 25.73C114.778 25.73 110.871 20.8601 110.871 14.664C110.871 8.1482 115.071 3.27539 121.546 3.27539C128.022 3.27539 131.962 8.27549 131.962 14.2762M116.113 14.5693C116.113 18.8263 118.132 21.8282 121.451 21.8282C124.769 21.8282 126.723 18.6665 126.723 14.439C126.723 10.5372 124.835 7.18015 121.418 7.18015C118.001 7.18015 116.113 10.3418 116.113 14.5663" fill="#AACE45"/>
<path d="M135.938 20.3095C137.273 20.9874 139.322 21.6653 141.44 21.6653C143.719 21.6653 144.923 20.7299 144.923 19.3089C144.923 17.8879 143.88 17.1804 141.246 16.2449C137.601 14.9867 135.224 12.9855 135.224 9.82378C135.224 6.11441 138.348 3.27539 143.525 3.27539C145.998 3.27539 147.82 3.7905 149.122 4.3737L148.014 8.34062C147.136 7.92025 145.574 7.30744 143.426 7.30744C141.278 7.30744 140.236 8.27549 140.236 9.4034C140.236 10.7918 141.473 11.4046 144.304 12.4674C148.178 13.8884 150 15.8867 150 18.9507C150 22.5949 147.169 25.6915 141.147 25.6915C138.641 25.6915 136.168 25.0461 134.931 24.3682L135.941 20.3036L135.938 20.3095Z" fill="#AACE45"/>
<path d="M153.937 20.3095C155.272 20.9874 157.322 21.6653 159.439 21.6653C161.718 21.6653 162.922 20.7299 162.922 19.3089C162.922 17.8879 161.88 17.1804 159.245 16.2449C155.601 14.9867 153.223 12.9855 153.223 9.82378C153.223 6.11441 156.348 3.27539 161.524 3.27539C163.997 3.27539 165.82 3.7905 167.122 4.3737L166.014 8.34062C165.136 7.92025 163.573 7.30744 161.426 7.30744C159.278 7.30744 158.236 8.27549 158.236 9.4034C158.236 10.7918 159.472 11.4046 162.304 12.4674C166.178 13.8884 168 15.8867 168 18.9507C168 22.5949 165.168 25.6915 159.147 25.6915C156.641 25.6915 154.167 25.0461 152.931 24.3682L153.94 20.3036L153.937 20.3095Z" fill="#AACE45"/>
</g>
<defs>
<clipPath id="clip0_1003_348">
<rect width="168" height="29" fill="white"/>
</clipPath>
</defs>
</svg>
