<svg width="138" height="24" viewBox="0 0 138 24" fill="none" xmlns="http://www.w3.org/2000/svg">
<g clip-path="url(#clip0_884_7465)">
<path d="M24.0354 12.0007C24.0354 13.6569 22.6909 14.9995 21.0322 14.9995C19.3736 14.9995 18.029 13.6569 18.029 12.0007C18.029 10.3445 19.3736 9.00195 21.0322 9.00195C22.6909 9.00195 24.0354 10.3445 24.0354 12.0007Z" fill="#AACE45"/>
<path d="M6.00889 12.0276C6.00889 13.6838 4.66432 15.0264 3.00569 15.0264C1.34706 15.0264 3.8147e-05 13.6838 3.8147e-05 12.0276C3.8147e-05 10.3714 1.34461 9.02881 3.00324 9.02881C4.66187 9.02881 6.00644 10.3714 6.00644 12.0276" fill="#AACE45"/>
<path d="M15.0209 12.0276C15.0209 13.6838 13.6764 15.0264 12.0177 15.0264C10.3591 15.0264 9.01454 13.6838 9.01454 12.0276C9.01454 10.3714 10.3591 9.02881 12.0177 9.02881C13.6764 9.02881 15.0209 10.3714 15.0209 12.0276Z" fill="#AACE45"/>
<path d="M24.0354 20.9998C24.0354 22.6559 22.6909 23.9985 21.0322 23.9985C19.3736 23.9985 18.029 22.6559 18.029 20.9998C18.029 19.3436 19.3736 18.001 21.0322 18.001C22.6909 18.001 24.0354 19.3436 24.0354 20.9998Z" fill="#AACE45"/>
<path d="M24.0354 2.99926C24.0354 4.65545 22.6909 5.99804 21.0322 5.99804C19.3736 5.99804 18.029 4.65545 18.029 2.99926C18.029 1.34308 19.3712 0.000488281 21.0298 0.000488281C22.6884 0.000488281 24.033 1.34308 24.033 2.99926" fill="#AACE45"/>
<path d="M33.0475 12.0276C33.0475 13.6838 31.7029 15.0264 30.0443 15.0264C28.3857 15.0264 27.0411 13.6838 27.0411 12.0276C27.0411 10.3714 28.3857 9.02881 30.0443 9.02881C31.7029 9.02881 33.0475 10.3714 33.0475 12.0276Z" fill="#BEC3C8"/>
<path d="M46.9029 6.42211H42.0645V3.00684H55.915V6.42211H50.9955V20.9995H46.9029V6.42211Z" fill="#BEC3C8"/>
<path d="M71.7971 20.4924C71.0488 20.8672 69.3632 21.2666 67.1721 21.2666C60.9424 21.2666 57.7331 17.3956 57.7331 12.2703C57.7331 6.13061 62.1177 2.71289 67.5721 2.71289C69.6846 2.71289 71.2892 3.13919 72.0106 3.51403L71.1813 6.74556C70.352 6.39766 69.2037 6.07916 67.7585 6.07916C64.5222 6.07916 62.0098 8.02935 62.0098 12.0326C62.0098 15.6365 64.1493 17.9052 67.7855 17.9052C69.0148 17.9052 70.379 17.6382 71.1813 17.3172L71.7971 20.4948V20.4924Z" fill="#AACE45"/>
<path d="M75.5413 3.24692C76.8515 3.03377 78.8021 2.87207 80.9686 2.87207C83.6431 2.87207 85.5152 3.27387 86.7984 4.28816C87.8682 5.1432 88.457 6.39759 88.457 8.05133C88.457 10.347 86.8254 11.9223 85.2747 12.4833V12.5642C86.5309 13.0713 87.2253 14.2718 87.6817 15.928C88.2435 17.9566 88.8054 20.3061 89.1514 20.9995H84.9803C84.6858 20.4923 84.2589 19.0248 83.724 16.8076C83.2431 14.5658 82.4678 13.9509 80.8092 13.9239H79.5799V20.9995H75.5437V3.24692H75.5413ZM79.5774 10.9889H81.1821C83.2137 10.9889 84.4184 9.97456 84.4184 8.39922C84.4184 6.74304 83.2946 5.91495 81.425 5.89045C80.4362 5.89045 79.8743 5.97129 79.5799 6.02519V10.9913L79.5774 10.9889Z" fill="#AACE45"/>
<path d="M108.4 11.817C108.4 17.7166 104.818 21.2935 99.5497 21.2935C94.2819 21.2935 91.0726 17.2633 91.0726 12.1355C91.0726 6.74311 94.5223 2.71045 99.8417 2.71045C105.161 2.71045 108.397 6.84846 108.397 11.8146M95.3786 12.0571C95.3786 15.5802 97.0372 18.0645 99.7632 18.0645C102.489 18.0645 104.094 15.4479 104.094 11.9493C104.094 8.72025 102.543 5.94197 99.7362 5.94197C96.9293 5.94197 95.3786 8.55855 95.3786 12.0547" fill="#AACE45"/>
<path d="M111.663 16.8076C112.76 17.3687 114.443 17.9297 116.183 17.9297C118.055 17.9297 119.044 17.1555 119.044 15.9795C119.044 14.8035 118.187 14.218 116.023 13.4438C113.03 12.4026 111.077 10.7464 111.077 8.1298C111.077 5.05998 113.643 2.71045 117.895 2.71045C119.927 2.71045 121.424 3.13675 122.493 3.61939L121.583 6.90236C120.862 6.55447 119.578 6.04732 117.814 6.04732C116.05 6.04732 115.194 6.84846 115.194 7.78191C115.194 8.93095 116.21 9.43809 118.536 10.3176C121.718 11.4936 123.215 13.1474 123.215 15.6831C123.215 18.699 120.889 21.2617 115.942 21.2617C113.884 21.2617 111.852 20.7276 110.836 20.1666L111.666 16.8027L111.663 16.8076Z" fill="#AACE45"/>
<path d="M126.449 16.8076C127.545 17.3687 129.228 17.9297 130.968 17.9297C132.84 17.9297 133.829 17.1555 133.829 15.9795C133.829 14.8035 132.973 14.218 130.809 13.4438C127.815 12.4026 125.862 10.7464 125.862 8.1298C125.862 5.05998 128.429 2.71045 132.681 2.71045C134.712 2.71045 136.209 3.13675 137.279 3.61939L136.368 6.90236C135.647 6.55447 134.364 6.04732 132.6 6.04732C130.836 6.04732 129.979 6.84846 129.979 7.78191C129.979 8.93095 130.995 9.43809 133.321 10.3176C136.503 11.4936 138 13.1474 138 15.6831C138 18.699 135.674 21.2617 130.728 21.2617C128.669 21.2617 126.637 20.7276 125.622 20.1666L126.451 16.8027L126.449 16.8076Z" fill="#AACE45"/>
</g>
<defs>
<clipPath id="clip0_884_7465">
<rect width="138" height="24" fill="white"/>
</clipPath>
</defs>
</svg>
