<svg width="32" height="32" viewBox="0 0 32 32" fill="none" xmlns="http://www.w3.org/2000/svg">
<path d="M24.2833 15.2702C24.3386 15.2702 24.3834 15.3149 24.3834 15.3702V16.6299C24.3834 16.6852 24.3386 16.7299 24.2833 16.7299H2.1C2.04477 16.7299 2 16.6852 2 16.6299V15.3702C2 15.3149 2.04477 15.2702 2.1 15.2702H24.2833Z" fill="#F7F7F8"/>
<path d="M29.9078 15.9232C29.9558 15.9632 29.9558 16.0369 29.9078 16.0769L20.0617 24.2823C20.0193 24.3176 19.9562 24.3119 19.9209 24.2695L19.1138 23.3017C19.0784 23.2592 19.0841 23.1962 19.1266 23.1608L27.6269 16.0769C27.6749 16.0369 27.6749 15.9632 27.6269 15.9232L19.1266 8.8393C19.0841 8.80393 19.0784 8.74086 19.1138 8.69843L19.9209 7.73059C19.9562 7.68818 20.0193 7.68246 20.0617 7.71781L29.9078 15.9232Z" fill="#F7F7F8"/>
</svg>
