<svg width="20" height="12" viewBox="0 0 20 12" fill="none" xmlns="http://www.w3.org/2000/svg">
<path d="M15.8881 5.39948C15.9433 5.39948 15.9881 5.44425 15.9881 5.49948V6.34218C15.9881 6.39741 15.9433 6.44218 15.8881 6.44218H0.1C0.0447719 6.44218 0 6.39741 0 6.34218V5.49948C0 5.44425 0.0447715 5.39948 0.1 5.39948H15.8881Z" fill="#171A1C"/>
<path d="M19.9078 5.84401C19.9558 5.88399 19.9558 5.95767 19.9078 5.99765L12.9232 11.8184C12.8807 11.8538 12.8177 11.8481 12.7823 11.8056L12.2424 11.1582C12.2071 11.1158 12.2128 11.0527 12.2552 11.0174L18.2786 5.99765C18.3266 5.95767 18.3266 5.88399 18.2786 5.84401L12.2552 0.824303C12.2128 0.788938 12.2071 0.725864 12.2424 0.683438L12.7823 0.0360052C12.8177 -0.00640131 12.8807 -0.0121211 12.9232 0.0232283L19.9078 5.84401Z" fill="#171A1C"/>
</svg>
