<svg width="28" height="17" viewBox="0 0 28 17" fill="none" xmlns="http://www.w3.org/2000/svg">
<path d="M5.66001 7.57551C5.60478 7.57551 5.56001 7.62028 5.56001 7.67551V8.9353C5.56001 8.99053 5.60478 9.0353 5.66001 9.0353H27.8434C27.8986 9.0353 27.9434 8.99053 27.9434 8.9353V7.67551C27.9434 7.62028 27.8986 7.57551 27.8434 7.57551H5.66001Z" fill="#F7F7F8"/>
<path d="M0.0355396 8.22858C-0.0124321 8.26856 -0.0124321 8.34225 0.0355415 8.38223L9.88167 16.5876C9.92408 16.623 9.98713 16.6173 10.0225 16.5749L10.8296 15.607C10.865 15.5646 10.8592 15.5015 10.8168 15.4662L2.31645 8.38223C2.26848 8.34225 2.26848 8.26856 2.31645 8.22858L10.8168 1.14466C10.8592 1.10929 10.865 1.04622 10.8296 1.00379L10.0225 0.0359441C9.98713 -0.0064624 9.92408 -0.0121821 9.88167 0.0231672L0.0355396 8.22858Z" fill="#F7F7F8"/>
</svg>
